<svg xmlns="http://www.w3.org/2000/svg" width="250" height="250" viewBox="0 0 250 250"><defs><clipPath id="clip-no-data"><path d="M0 0H250V250H0z"/></clipPath><style>.cls-1{clip-path:url(#clip-no-data)}</style></defs><g id="no-data" class="cls-1"><path id="no-data-2" data-name="no-data" d="M-101.616-.815c-1.882,0-3.408-1.12-3.408-2.5s1.526-2.5,3.408-2.5H-72.4c1.882,0,3.408,1.121,3.408,2.5s-1.526,2.5-3.408,2.5Zm-121.746,0c-1.882,0-3.408-1.12-3.408-2.5s1.526-2.5,3.408-2.5H-113.3c1.884,0,3.409,1.121,3.409,2.5s-1.526,2.5-3.409,2.5Zm-25.322,0c-1.883,0-3.408-1.12-3.408-2.5s1.526-2.5,3.408-2.5H-233.1c1.884,0,3.409,1.121,3.409,2.5s-1.525,2.5-3.409,2.5Zm-12.662,0c-1.883,0-3.408-1.12-3.408-2.5s1.525-2.5,3.408-2.5h1.948c1.884,0,3.409,1.121,3.409,2.5s-1.525,2.5-3.409,2.5Zm197.716-11.44c-1.883,0-3.409-1.12-3.409-2.5s1.526-2.5,3.409-2.5h14.609c1.883,0,3.409,1.121,3.409,2.5s-1.526,2.5-3.409,2.5Zm-12.662,0c-1.883,0-3.408-1.12-3.408-2.5s1.525-2.5,3.408-2.5h3.9c1.882,0,3.408,1.121,3.408,2.5s-1.526,2.5-3.408,2.5Zm-173.366,0c-1.882,0-3.408-1.12-3.408-2.5s1.526-2.5,3.408-2.5h6.374q-.535-.452-1.036-.954a16.45,16.45,0,0,1-4.85-11.708,16.446,16.446,0,0,1,4.85-11.707,16.424,16.424,0,0,1,9.759-4.738v-99.457a10.646,10.646,0,0,1,3.138-7.575,10.64,10.64,0,0,1,7.575-3.138h96.909a16.934,16.934,0,0,1,12.052,4.992,16.926,16.926,0,0,1,4.991,12.052,16.92,16.92,0,0,1-4.991,12.052,16.93,16.93,0,0,1-12.052,4.993h-.081a38.809,38.809,0,0,1,3.351,6.263,38.7,38.7,0,0,1,3.062,15.164,38.7,38.7,0,0,1-3.062,15.165,38.751,38.751,0,0,1-5.859,9.649L-119.5-66.18l3.443-3.443,23.071,23.071a9.263,9.263,0,0,1,0,13.085,9.224,9.224,0,0,1-6.543,2.705,9.221,9.221,0,0,1-6.542-2.706l-23.072-23.072,4.132-4.131h0l-4.362-4.362v40.955a10.632,10.632,0,0,1-2.449,6.818H-87.98c1.883,0,3.409,1.121,3.409,2.5s-1.526,2.5-3.409,2.5Zm18.992-132.594v98.371H-150.8v3.933A12.714,12.714,0,0,0-162.49-29.921,12.714,12.714,0,0,0-150.8-17.3v.038h11.687A5.85,5.85,0,0,0-133.27-23.1V-68.929l-1.8-1.8a38.742,38.742,0,0,1-9.336,5.6,38.716,38.716,0,0,1-15.164,3.061,38.721,38.721,0,0,1-15.165-3.061,38.763,38.763,0,0,1-9.462-5.7h-38.681V-75.7h33.7a38.751,38.751,0,0,1-6.286-10.157q-.525-1.238-.959-2.5h-26.452v-4.87h25.125a39.179,39.179,0,0,1-.776-7.791,39.414,39.414,0,0,1,.3-4.87H-221.9v-4.87h24.6a38.71,38.71,0,0,1,1.837-5.424,38.815,38.815,0,0,1,8.348-12.383,38.818,38.818,0,0,1,12.383-8.349,38.705,38.705,0,0,1,15.165-3.062,38.7,38.7,0,0,1,15.164,3.062,38.757,38.757,0,0,1,11.132,7.151v-22.875h-89.6A7.8,7.8,0,0,0-230.667-144.85ZM-245.276-29.921a12.677,12.677,0,0,0,12.662,12.662H-160.5c-.367-.311-.716-.633-1.037-.954a16.45,16.45,0,0,1-4.85-11.708,16.446,16.446,0,0,1,4.85-11.707c.331-.331.68-.652,1.037-.954h-72.116A12.676,12.676,0,0,0-245.276-29.921Zm141.719-3.993a7.318,7.318,0,0,0,9.193-.929,7.317,7.317,0,0,0,.929-9.194Zm-19.387-19.18,17.906,17.906,2.065-2.065-17.906-17.907Zm3.443-3.443,17.906,17.907,3.443-3.444-17.906-17.906Zm4.82-4.82,17.907,17.906,2.065-2.067-17.906-17.905Zm-11.708,4.819,2.067,2.067,10.33-10.33-2.066-2.067Zm-6.887-15.151,8.265,8.266,2.755-2.756-8.265-8.265Zm-60.379-29.331a34.127,34.127,0,0,0,34.088,34.089,34.128,34.128,0,0,0,34.088-34.089,34.128,34.128,0,0,0-34.088-34.088A34.127,34.127,0,0,0-193.655-101.021Zm64.281-25.323h2.434a13.164,13.164,0,0,0,13.148-13.149,13.163,13.163,0,0,0-13.148-13.148h-2.434ZM-274.982-12.255c-1.883,0-3.408-1.12-3.408-2.5s1.525-2.5,3.408-2.5H-259.4c1.884,0,3.409,1.121,3.409,2.5s-1.525,2.5-3.409,2.5Zm-14.61,0c-1.883,0-3.409-1.12-3.409-2.5s1.526-2.5,3.409-2.5h5.845c1.882,0,3.407,1.121,3.407,2.5s-1.526,2.5-3.407,2.5Zm1.906-24.957a1.236,1.236,0,0,1-.278-1.738l2.38-3.246L-289.09-44.2a1.239,1.239,0,0,1-.459-1.7,1.261,1.261,0,0,1,1.2-.617,1.256,1.256,0,0,1,1.093.117l3.163,1.976,1.864-3.229a1.258,1.258,0,0,1,1.576-.53,1.26,1.26,0,0,1,.843.233,1.238,1.238,0,0,1,.277,1.739l-2.331,3.18,1.758,1.1,1.7.973a1.238,1.238,0,0,1,.459,1.7,1.261,1.261,0,0,1-1.624.5,1.254,1.254,0,0,1-.485-.178l-1.8-1.123-1.4-.8-1.834,3.175a1.256,1.256,0,0,1-1.09.63,1.247,1.247,0,0,1-.261-.028,1.276,1.276,0,0,1-.514.108A1.255,1.255,0,0,1-287.685-37.212ZM-222.874-53.3v-4.87H-154.7v4.87Zm52.313-21.7a28.144,28.144,0,0,1-8.977-6.054,28.159,28.159,0,0,1-6.054-8.978,28.075,28.075,0,0,1-2.219-10.994,28.074,28.074,0,0,1,2.219-10.993,28.172,28.172,0,0,1,6.054-8.978,28.156,28.156,0,0,1,8.977-6.053,28.06,28.06,0,0,1,10.994-2.22,28.067,28.067,0,0,1,10.994,2.22,28.157,28.157,0,0,1,8.978,6.053,28.173,28.173,0,0,1,6.054,8.978,28.074,28.074,0,0,1,2.219,10.993,28.075,28.075,0,0,1-2.219,10.994,28.159,28.159,0,0,1-6.054,8.978,28.145,28.145,0,0,1-8.978,6.054,28.082,28.082,0,0,1-10.994,2.219A28.076,28.076,0,0,1-170.561-74.994Zm-13.72-26.026a24.742,24.742,0,0,0,24.714,24.715,24.742,24.742,0,0,0,24.714-24.715,24.579,24.579,0,0,0-2-9.74h-10.053v-2.921h8.556a24.724,24.724,0,0,0-21.217-12.053,24.724,24.724,0,0,0-21.217,12.053h4.66v2.921h-6.157A24.579,24.579,0,0,0-184.28-101.021ZM-89-83a6.007,6.007,0,0,1,6-6,6.007,6.007,0,0,1,6,6,6.007,6.007,0,0,1-6,6A6.008,6.008,0,0,1-89-83Zm2.4,0A3.6,3.6,0,0,0-83-79.4,3.6,3.6,0,0,0-79.4-83,3.6,3.6,0,0,0-83-86.6,3.6,3.6,0,0,0-86.6-83Zm-76.352-2.067v-4.839h4.435v4.839ZM-260-91a5.006,5.006,0,0,1,5-5,5.005,5.005,0,0,1,5,5,5.006,5.006,0,0,1-5,5A5.006,5.006,0,0,1-260-91Zm2,0a3,3,0,0,0,3,3,3,3,0,0,0,3-3,3,3,0,0,0-3-3A3,3,0,0,0-258-91Zm95.451-.859q0-4.436,1.411-6.654a28.621,28.621,0,0,1,3.831-4.436,5.237,5.237,0,0,0,1.613-3.831,5.751,5.751,0,0,0-1.411-4.234,4.638,4.638,0,0,0-3.428-1.21,4.1,4.1,0,0,0-3.024,1.21q-2.017,2.016-2.017,6.05h-4.638a11.753,11.753,0,0,1,3.428-8.672,8.721,8.721,0,0,1,6.452-2.419,9.275,9.275,0,0,1,6.856,2.419,9.015,9.015,0,0,1,2.622,6.655,7.963,7.963,0,0,1-2.42,5.847L-157.1-97.3a7.392,7.392,0,0,0-1.815,5.444Zm10.775-1.37v-1.948h13.635v1.948Zm-26.3,0v-1.948h7.792v1.948ZM-287-105.5a2.5,2.5,0,0,1,2.5-2.5,2.5,2.5,0,0,1,2.5,2.5,2.5,2.5,0,0,1-2.5,2.5A2.5,2.5,0,0,1-287-105.5Zm229.952-15.238q-.057,0-.113,0a1.654,1.654,0,0,1-.978-.32,1.684,1.684,0,0,1-.368-2.343l3.155-4.372-4.65-2.7a1.685,1.685,0,0,1-.609-2.291l0-.008a1.808,1.808,0,0,1,.258-.705,1.815,1.815,0,0,1,2.5-.577l4.562,2.85,2.689-4.658a1.815,1.815,0,0,1,2.479-.664,1.815,1.815,0,0,1,.908,1.553,1.686,1.686,0,0,1-.115,1.789l-2.838,3.933,4.625,2.889a1.815,1.815,0,0,1,.577,2.5,1.811,1.811,0,0,1-1.345.843,1.647,1.647,0,0,1-1.191-.185l-4.655-2.7-2.559,4.433a1.815,1.815,0,0,1-1.573.907A1.805,1.805,0,0,1-57.048-120.739Zm-165.826-2.683v-4.871h26.3v4.871ZM-274.507-142.8a1.477,1.477,0,0,1-.743-.2,1.492,1.492,0,0,1-.511-.486,1.461,1.461,0,0,1-.227-1.964l2.051-2.823.414-.717-3.86-2.412a1.5,1.5,0,0,1-.61-1.8,1.463,1.463,0,0,1,.16-.409,1.461,1.461,0,0,1,2-.535l3.966,2.29,2.072-3.588a1.5,1.5,0,0,1,1.746-.682,1.46,1.46,0,0,1,1.547.107,1.46,1.46,0,0,1,.324,2.04l-2.767,3.809,4.077,2.354a1.461,1.461,0,0,1,.535,2,1.459,1.459,0,0,1-1.212.729,1.5,1.5,0,0,1-1.657.044l-3.758-2.348-.084.115-2.152,3.728a1.5,1.5,0,0,1-1.3.75ZM-185-175a5.005,5.005,0,0,1,5-5,5.006,5.006,0,0,1,5,5,5.007,5.007,0,0,1-5,5A5.006,5.006,0,0,1-185-175Zm2,0a3,3,0,0,0,3,3,3,3,0,0,0,3-3,3,3,0,0,0-3-3A3,3,0,0,0-183-175Zm98-2.5a2.5,2.5,0,0,1,2.5-2.5,2.5,2.5,0,0,1,2.5,2.5,2.5,2.5,0,0,1-2.5,2.5A2.5,2.5,0,0,1-85-177.5ZM-93-206a8.009,8.009,0,0,1,8-8,8.009,8.009,0,0,1,8,8,8.009,8.009,0,0,1-8,8A8.009,8.009,0,0,1-93-206Zm3.2,0a4.805,4.805,0,0,0,4.8,4.8,4.805,4.805,0,0,0,4.8-4.8,4.8,4.8,0,0,0-4.8-4.8A4.8,4.8,0,0,0-89.8-206Z" transform="translate(294 232.001)"/></g></svg>